<svg width="19" height="19" viewBox="0 0 19 19" fill="none" xmlns="http://www.w3.org/2000/svg">
<path d="M5.96595 0.00014693C6.56445 0.0183484 7.14394 0.122847 7.70538 0.313795H7.76143C7.79943 0.331845 7.82793 0.351795 7.84693 0.369845C8.05688 0.437294 8.25543 0.513293 8.44543 0.617792L8.80642 0.77929C8.94892 0.85529 9.11992 0.996838 9.21492 1.05479C9.30992 1.11084 9.41442 1.16879 9.49992 1.23434C10.5554 0.427794 11.8369 -0.00920128 13.1574 0.00014693C13.7568 0.00014693 14.3553 0.0848477 14.9244 0.275796C18.4308 1.41578 19.6943 5.26324 18.6388 8.62621C18.0403 10.3447 17.0618 11.9132 15.7803 13.1947C13.9459 14.9712 11.9328 16.5482 9.76591 17.9067L9.52842 18.0501L9.28142 17.8972C7.10689 16.5482 5.08246 14.9712 3.23093 13.1852C1.95795 11.9037 0.978505 10.3447 0.370512 8.62621C-0.702977 5.26324 0.56051 1.41578 4.10492 0.255846C4.38042 0.160847 4.66447 0.0943476 4.94946 0.057298H5.06346C5.33041 0.0183484 5.59546 0.00014693 5.86145 0.00014693H5.96595ZM14.4304 3.00227C14.0409 2.86832 13.6134 3.07827 13.4709 3.47726C13.3379 3.87626 13.5469 4.31325 13.9459 4.4548C14.5548 4.6828 14.9624 5.28224 14.9624 5.94629V5.97574C14.9443 6.19328 15.0099 6.40323 15.1429 6.56473C15.2759 6.72623 15.4754 6.82028 15.6844 6.84023C16.0738 6.82978 16.4063 6.51723 16.4348 6.11728V6.00424C16.4633 4.6733 15.6568 3.46776 14.4304 3.00227Z" fill="#FC0000"/>
</svg>
