<svg width="32" height="32" viewBox="0 0 32 32" fill="none" xmlns="http://www.w3.org/2000/svg">
<circle cx="16" cy="16" r="15" stroke="white" stroke-width="2"/>
<path fill-rule="evenodd" clip-rule="evenodd" d="M22.2684 9.24712C22.5979 9.57662 22.5979 10.1108 22.2684 10.4403L17.8594 14.8493C17.3102 15.3985 17.3102 16.2889 17.8594 16.8381L22.2684 21.2471C22.5979 21.5766 22.5979 22.1108 22.2684 22.4403C21.9389 22.7698 21.4047 22.7698 21.0752 22.4403L16.6661 18.0313C15.458 16.8231 15.458 14.8643 16.6661 13.6561L21.0752 9.24712C21.4047 8.91763 21.9389 8.91763 22.2684 9.24712Z" fill="white"/>
<path fill-rule="evenodd" clip-rule="evenodd" d="M9.2473 9.24712C8.91758 9.57662 8.91758 10.1108 9.2473 10.4403L13.6592 14.8493C14.2088 15.3985 14.2088 16.2889 13.6592 16.8381L9.2473 21.2471C8.91758 21.5766 8.91758 22.1108 9.2473 22.4403C9.57702 22.7698 10.1116 22.7698 10.4413 22.4403L14.8533 18.0313C16.0622 16.8231 16.0622 14.8643 14.8533 13.6561L10.4413 9.24712C10.1116 8.91763 9.57702 8.91763 9.2473 9.24712Z" fill="white"/>
</svg>
