<svg width="15" height="15" viewBox="0 0 15 15" fill="none" xmlns="http://www.w3.org/2000/svg">
<path fill-rule="evenodd" clip-rule="evenodd" d="M0 4.97332C0 2.22661 2.22661 0 4.97332 0H9.08917C11.8359 0 14.0625 2.22661 14.0625 4.97332V9.08917C14.0625 11.8359 11.8359 14.0625 9.08917 14.0625H4.97332C2.22661 14.0625 0 11.8359 0 9.08917V4.97332ZM4.97332 1.02896C2.79491 1.02896 1.02896 2.79491 1.02896 4.97332V9.08917C1.02896 11.2676 2.79491 13.0336 4.97332 13.0336H9.08917C11.2676 13.0336 13.0335 11.2676 13.0335 9.08917V4.97332C13.0335 2.79491 11.2676 1.02896 9.08917 1.02896H4.97332Z" fill="#393636"/>
<path fill-rule="evenodd" clip-rule="evenodd" d="M0.514481 7.54575H4.0121C4.80411 7.54575 5.31509 8.19129 5.53259 8.71648C5.61881 8.92452 5.74509 9.11361 5.90435 9.27282C6.06362 9.43209 6.25265 9.55843 6.4607 9.64459C6.6688 9.7308 6.89179 9.77513 7.11698 9.77513C7.34222 9.77513 7.56521 9.7308 7.77325 9.64459C7.98136 9.55843 8.17039 9.43209 8.32966 9.27282C8.48886 9.11361 8.61521 8.92452 8.70136 8.71648C8.91892 8.19129 9.4299 7.54575 10.2219 7.54575H13.548V8.57471H10.2219C10.0469 8.57471 9.80459 8.74196 9.65203 9.11026C9.51411 9.44312 9.31203 9.74562 9.05722 10.0004C8.8024 10.2552 8.49996 10.4573 8.16703 10.5953C7.83411 10.7331 7.47734 10.8041 7.11698 10.8041C6.75667 10.8041 6.39984 10.7331 6.06692 10.5953C5.73405 10.4573 5.43155 10.2552 5.17673 10.0004C4.92198 9.74562 4.71984 9.44312 4.58198 9.11026C4.42942 8.74196 4.1871 8.57465 4.0121 8.57465H0.514481V7.54575Z" fill="#393636"/>
</svg>
