<svg width="32" height="32" viewBox="0 0 32 32" fill="none" xmlns="http://www.w3.org/2000/svg">
<path fill-rule="evenodd" clip-rule="evenodd" d="M9.24712 15.7159C9.57662 15.3864 10.1109 15.3864 10.4404 15.7159L14.8494 20.1249C15.3986 20.6741 16.2889 20.6741 16.8381 20.1249L21.2471 15.7159C21.5766 15.3864 22.1109 15.3864 22.4404 15.7159C22.7699 16.0454 22.7699 16.5796 22.4404 16.9091L18.0314 21.3181C16.8232 22.5263 14.8643 22.5263 13.6561 21.3181L9.24712 16.9091C8.91763 16.5796 8.91763 16.0454 9.24712 15.7159Z" fill="white"/>
<path fill-rule="evenodd" clip-rule="evenodd" d="M15.75 9C16.216 9 16.5938 9.3778 16.5938 9.8438V20.5312C16.5938 20.9972 16.216 21.375 15.75 21.375C15.284 21.375 14.9062 20.9972 14.9062 20.5312V9.8438C14.9062 9.3778 15.284 9 15.75 9Z" fill="white"/>
<circle cx="16" cy="16" r="15" stroke="white" stroke-width="2"/>
</svg>
