<svg width="14" height="14" viewBox="0 0 14 14" fill="none" xmlns="http://www.w3.org/2000/svg">
<path fill-rule="evenodd" clip-rule="evenodd" d="M0 5.07503C0 2.27217 2.27217 0 5.07497 0H8.92497C11.7278 0 14 2.27217 14 5.07497V8.92497C14 11.7278 11.7278 14 8.92503 14H5.07503C2.27217 14 0 11.7278 0 8.92503V5.07503ZM5.07497 1.05C2.85208 1.05 1.05 2.85208 1.05 5.07503V8.92503C1.05 11.1479 2.85208 12.95 5.07503 12.95H8.92503C11.1479 12.95 12.95 11.1479 12.95 8.92497V5.07497C12.95 2.85208 11.1479 1.05 8.92497 1.05H5.07497Z" fill="#393636"/>
<path fill-rule="evenodd" clip-rule="evenodd" d="M9.99904 4.70663C10.2025 4.91321 10.2 5.2456 9.99338 5.44907L6.57514 8.81535C6.09833 9.28494 5.33288 9.28494 4.85607 8.81535L3.83164 7.80648C3.625 7.60301 3.62251 7.27062 3.82592 7.06404C4.02938 6.85747 4.36177 6.85492 4.56835 7.05832L5.59284 8.06725C5.66097 8.13433 5.7703 8.13433 5.83843 8.06725L9.25661 4.70097C9.46319 4.4975 9.79558 4.50005 9.99904 4.70663Z" fill="#393636"/>
</svg>
