<?xml version="1.0" encoding="UTF-8"?>
<svg id="Layer_1" data-name="Layer 1" xmlns="http://www.w3.org/2000/svg" viewBox="0 0 19 19">
  <defs>
    <style>
      .cls-1 {
        fill: #fff;
        stroke-width: 0px;
      }
    </style>
  </defs>
  <path class="cls-1" d="M5.97,0c.6.02,1.18.12,1.74.31h.06s.07.04.09.06c.21.07.41.14.6.25l.36.16c.14.08.31.22.41.28.1.06.2.11.28.18C10.56.43,11.84,0,13.16,0,13.76,0,14.36.08,14.92.28c3.51,1.14,4.77,4.99,3.71,8.35-.6,1.72-1.58,3.29-2.86,4.57-1.83,1.78-3.85,3.35-6.01,4.71l-.24.14-.25-.15c-2.17-1.35-4.2-2.93-6.05-4.71-1.27-1.28-2.25-2.84-2.86-4.56C-.7,5.26.56,1.42,4.1.26c.28-.09.56-.16.84-.2h.11C5.33.02,5.6,0,5.86,0h.1ZM14.43,3c-.39-.13-.82.08-.96.47-.13.4.08.84.48.98.61.23,1.02.83,1.02,1.49v.03c-.02.22.05.43.18.59.13.16.33.26.54.28.39-.01.72-.32.75-.72v-.11c.03-1.33-.78-2.54-2-3Z"/>
</svg>