<svg width="14" height="14" viewBox="0 0 14 14" fill="none" xmlns="http://www.w3.org/2000/svg">
<path fill-rule="evenodd" clip-rule="evenodd" d="M7.93337 1.22496C7.62158 0.988857 7.19088 0.988857 6.87909 1.22496L2.89197 4.24416C2.32517 4.67338 1.99216 5.34328 1.99216 6.05422V10.4727C1.99216 11.7266 3.00865 12.7432 4.26258 12.7432H10.5499C11.8038 12.7432 12.8203 11.7266 12.8203 10.4728V6.05422C12.8203 5.34328 12.4873 4.67338 11.9205 4.24416L7.93337 1.22496ZM6.24645 0.389566C6.93243 -0.129855 7.88003 -0.129855 8.56601 0.389566L12.5531 3.40877C13.3815 4.03608 13.8682 5.01516 13.8682 6.05422V10.4728C13.8682 12.3054 12.3825 13.7911 10.5499 13.7911H4.26258C2.42993 13.7911 0.944275 12.3054 0.944275 10.4727V6.05422C0.944275 5.01516 1.43099 4.03608 2.25936 3.40877L6.24645 0.389566Z" fill="#393636"/>
<path fill-rule="evenodd" clip-rule="evenodd" d="M5.13585 10.2981C5.13585 10.0087 5.37039 9.77414 5.65976 9.77414H9.32739C9.6167 9.77414 9.8513 10.0087 9.8513 10.2981C9.8513 10.5875 9.6167 10.8221 9.32739 10.8221H5.65976C5.37039 10.8221 5.13585 10.5875 5.13585 10.2981Z" fill="#393636"/>
</svg>
