<svg width="168" height="213" viewBox="0 0 168 213" fill="none" xmlns="http://www.w3.org/2000/svg">
<path fill-rule="evenodd" clip-rule="evenodd" d="M45.9377 15.7307C29.2656 15.7307 15.75 29.2296 15.75 45.8815V184.104C15.75 195.406 29.1116 201.411 37.5797 193.915L64.8489 169.779C75.7792 160.105 92.2208 160.105 103.151 169.779L130.42 193.915C138.888 201.411 152.25 195.406 152.25 184.104V45.8815C152.25 29.2296 138.734 15.7307 122.062 15.7307H45.9377ZM45.9377 0H122.062C147.433 0 168 20.5417 168 45.8815V184.104C168 208.968 138.605 222.178 119.973 205.688L92.7052 181.552C87.7371 177.154 80.2629 177.154 75.2948 181.552L48.0265 205.688C29.3953 222.178 0 208.968 0 184.104V45.8815C0 20.5417 20.5669 0 45.9377 0Z" fill="white" fill-opacity="0.06"/>
<path fill-rule="evenodd" clip-rule="evenodd" d="M47 63C47 58.5819 50.5501 55 54.9281 55H113.072C117.45 55 121 58.5819 121 63C121 67.4181 117.45 71 113.072 71H54.9281C50.5501 71 47 67.4181 47 63Z" fill="white" fill-opacity="0.06"/>
</svg>
