<svg width="19" height="18" viewBox="0 0 19 18" fill="none" xmlns="http://www.w3.org/2000/svg">
<path fill-rule="evenodd" clip-rule="evenodd" d="M0 6.29129C0 2.81669 2.98897 0 6.67611 0H12.2012C15.8883 0 18.8772 2.81669 18.8772 6.29129V11.4979C18.8772 14.9725 15.8883 17.7891 12.2012 17.7891H6.67611C2.98897 17.7891 0 14.9725 0 11.4979V6.29129ZM6.67611 1.30165C3.75184 1.30165 1.38126 3.53558 1.38126 6.29129V11.4979C1.38126 14.2536 3.75184 16.4876 6.67611 16.4876H12.2012C15.1254 16.4876 17.4961 14.2536 17.4961 11.4979V6.29129C17.4961 3.53558 15.1254 1.30165 12.2012 1.30165H6.67611Z" fill="#524747"/>
<path fill-rule="evenodd" clip-rule="evenodd" d="M5.98543 4.77264C5.60408 4.77264 5.29484 5.06405 5.29484 5.4235C5.29484 5.78295 5.60408 6.07436 5.98543 6.07436C6.36686 6.07436 6.6761 5.78295 6.6761 5.4235C6.6761 5.06405 6.36686 4.77264 5.98543 4.77264ZM3.91357 5.4235C3.91357 4.34516 4.84121 3.47107 5.98543 3.47107C7.12973 3.47107 8.05737 4.34516 8.05737 5.4235C8.05737 6.50184 7.12973 7.37593 5.98543 7.37593C4.84121 7.37593 3.91357 6.50184 3.91357 5.4235Z" fill="#524747"/>
<path fill-rule="evenodd" clip-rule="evenodd" d="M13.2882 6.73289C14.2772 5.80095 15.8806 5.80095 16.8694 6.73289L18.5599 8.32587C18.8297 8.58011 18.8297 8.99216 18.5599 9.24632C18.2902 9.50048 17.853 9.50048 17.5833 9.24632L15.8928 7.65326C15.4432 7.22971 14.7144 7.22971 14.265 7.65326L10.7689 10.9478C9.77993 11.8798 8.1766 11.8798 7.18766 10.9478L6.91452 10.6904C6.46506 10.2669 5.73625 10.2669 5.28671 10.6904L1.98477 13.802C1.71506 14.0562 1.27778 14.0562 1.00806 13.802C0.73836 13.5479 0.73836 13.1358 1.00806 12.8817L4.31004 9.77007C5.29891 8.83813 6.90232 8.83813 7.89126 9.77007L8.16432 10.0274C8.61386 10.451 9.34268 10.451 9.79221 10.0274L13.2882 6.73289Z" fill="#524747"/>
</svg>
